<svg width="55" height="42" viewBox="0 0 55 42" fill="none" xmlns="http://www.w3.org/2000/svg">
<path d="M38.7059 26.0604C36.9196 23.5204 34.6636 21.6096 32.145 20.5185C33.4897 19.2757 34.5195 17.5478 35.1127 15.5546C35.7695 13.3478 35.8596 10.9227 35.3706 8.64444C34.8817 6.36681 33.8376 4.34667 32.3825 2.89891C30.9257 1.44941 29.132 0.65 27.2716 0.65C25.4111 0.65 23.6174 1.44941 22.1606 2.89891C20.7055 4.34667 19.6614 6.36681 19.1725 8.64444C18.6835 10.9227 18.7736 13.3478 19.4304 15.5546C20.0235 17.5477 21.0533 19.2755 22.3977 20.5182C20.6026 21.2945 18.9403 22.4879 17.4863 24.0299C17.7565 23.4535 17.972 22.8339 18.1268 22.1845C18.5162 20.5507 18.5045 18.7988 18.0933 17.1738C17.6822 15.5495 16.8892 14.1221 15.8133 13.102C14.7356 12.0804 13.4252 11.5173 12.066 11.5173C10.7069 11.5173 9.39645 12.0804 8.31881 13.102C7.24287 14.1221 6.44989 15.5495 6.03878 17.1738C5.62753 18.7988 5.61588 20.5507 6.00529 22.1845C6.35197 23.639 7.0034 24.944 7.89149 25.9495C5.81962 27.0116 4.03874 28.8362 2.75865 31.1896C1.38885 33.7079 0.654201 36.7169 0.65 39.7983V39.7988C0.65 40.1838 0.765608 40.5663 0.989083 40.8601C1.21407 41.1558 1.5429 41.35 1.91379 41.35H53.0862C53.4571 41.35 53.7859 41.1558 54.0109 40.8601C54.2344 40.5663 54.35 40.1838 54.35 39.7988L54.35 39.7974C54.3381 36.7243 53.5998 33.7262 52.2305 31.2176C50.9515 28.8744 49.1754 27.0575 47.1102 25.9984C48.002 24.9957 48.6574 23.6918 49.0077 22.2368C49.4012 20.6019 49.3927 18.8471 48.9832 17.2187C48.5738 15.5909 47.7812 14.1597 46.7043 13.1368C45.6258 12.1123 44.3135 11.5474 42.9522 11.5474C41.591 11.5474 40.2787 12.1123 39.2001 13.1368C38.1233 14.1597 37.3306 15.5909 36.9213 17.2187C36.5117 18.8471 36.5032 20.6019 36.8968 22.2368C37.2483 23.697 37.9072 25.0052 38.804 26.0093L38.7059 26.0604ZM42.7641 38.3196C42.568 34.875 41.6999 31.5505 40.2396 28.6668C41.0012 28.3241 41.7935 28.1259 42.5931 28.0766V28.0903L42.945 28.0885C45.1115 28.0769 47.2254 29.1332 48.8618 31.0908C50.4301 32.9668 51.4413 35.5318 51.7016 38.3196H42.7641ZM21.3803 11.6669L21.3817 11.0506C21.4644 9.70804 21.8061 8.41524 22.3744 7.29726C23.0325 6.00239 23.9598 5.00963 25.0266 4.42873C26.0904 3.84949 27.2522 3.70112 28.3714 3.99377C29.4934 4.28714 30.5406 5.01579 31.3723 6.10913C32.2044 7.20293 32.7777 8.60617 33.0104 10.1442C33.2431 11.6819 33.1233 13.2752 32.668 14.72C32.2126 16.1653 31.4454 17.3869 30.4755 18.2388C29.5073 19.0893 28.3827 19.5324 27.2445 19.5325C26.488 19.5294 25.7355 19.3307 25.0291 18.9429C24.3217 18.5545 23.6725 17.9829 23.1219 17.2549C22.5713 16.5268 22.1318 15.6587 21.8318 14.6986C21.5318 13.7386 21.378 12.7082 21.3803 11.6669ZM12.0568 28.0645L12.0606 28.0644C12.8415 28.0561 13.6205 28.1864 14.3769 28.4525C12.8636 31.3724 11.9628 34.7585 11.7609 38.2716H3.33559C3.59909 35.4964 4.60682 32.9438 6.16714 31.0739C7.79573 29.1222 9.89881 28.0638 12.0568 28.0645ZM39.1262 19.8584C39.1262 18.8261 39.3594 17.822 39.7905 16.9738C40.2217 16.1254 40.8264 15.4806 41.5159 15.1052C42.2023 14.7314 42.9489 14.6368 43.6675 14.8247C44.3888 15.0133 45.0681 15.4834 45.611 16.1971C46.1542 16.9112 46.5308 17.8307 46.6839 18.8422C46.8369 19.8533 46.7579 20.9007 46.459 21.8494C46.1599 22.7987 45.6574 23.5963 45.0271 24.1499C44.3984 24.7021 43.673 24.986 42.9431 24.986C42.4574 24.986 41.9728 24.8605 41.5159 24.6117C41.0583 24.3625 40.6356 23.9934 40.2752 23.5198C39.9148 23.046 39.6256 22.479 39.4272 21.8494C39.2289 21.22 39.1262 20.5432 39.1262 19.8584ZM12.0589 14.7308C12.7894 14.7266 13.5163 15.0068 14.147 15.5562C14.7793 16.107 15.2843 16.9029 15.5861 17.8516C15.8877 18.7999 15.9691 19.848 15.818 20.8606C15.667 21.8736 15.2917 22.7953 14.7491 23.5118C14.2068 24.2278 13.5274 24.7001 12.8056 24.8905C12.0865 25.0802 11.3391 24.9868 10.6518 24.6137C9.96142 24.239 9.35575 23.5943 8.92374 22.7454C8.49188 21.8967 8.25828 20.8917 8.25828 19.8584C8.25827 18.4761 8.67553 17.1632 9.40127 16.205C10.1255 15.2487 11.085 14.7365 12.0589 14.7308ZM22.2 38.2956H14.2915C14.5681 34.0444 16.0302 30.0853 18.3858 27.181C20.8075 24.1953 23.981 22.5582 27.2533 22.5582C30.5255 22.5582 33.699 24.1953 36.1207 27.181C38.4764 30.0853 39.9384 34.0444 40.215 38.2956H22.2Z" fill="black" stroke="black" stroke-width="0.7"/>
</svg>
